.
..............................Site Info...........................

 -   http://www.scenetime.com  *_*   

SceneTime is going to Close sign up on march/1, hurry up! get in before the doors are closed.

     We care to share . Join us on  http://www.scenetime.com 

    Be the first to get new release at  http://www.scenetime.com

        Seed back for speed


...................................NFO:.................................................








































          
          
              
              
                    
                    
                    
                    

Elevator.2011.R5.XviD-SiC

[img]http://img846.imageshack.us/img846/6362/elevatora.jpg[/img] 
http://www.imdb.com/title/tt1728975/
Racism collides with corporate greed when nine strangers are trapped in a Wall Street elevator, and one of them has a bomb. They will do anything to survive.

Format                                   : AVI
Format/Info                              : Audio Video Interleave
File size                                : 701 MiB
Duration                                 : 1h 20mn
Overall bit rate                         : 1 216 Kbps

Video
ID                                       : 0
Format                                   : MPEG-4 Visual
Format profile                           : Advanced Simple@L5
Format settings, BVOP                    : 2
Format settings, QPel                    : No
Format settings, GMC                     : No warppoints
Format settings, Matrix                  : Default (H.263)
Muxing mode                              : Packed bitstream
Codec ID                                 : XVID
Codec ID/Hint                            : XviD
Duration                                 : 1h 20mn
Bit rate                                 : 1 081 Kbps
Width                                    : 720 pixels
Height                                   : 288 pixels
Display aspect ratio                     : 2.500
Frame rate                               : 25.000 fps
Color space                              : YUV
Chroma subsampling                       : 4:2:0
Bit depth                                : 8 bits
Scan type                                : Progressive
Compression mode                         : Lossy
Bits/(Pixel*Frame)                       : 0.209
Stream size                              : 624 MiB (89%)
Writing library                          : XviD 62

Audio
ID                                       : 1
Format                                   : MPEG Audio
Format version                           : Version 1
Format profile                           : Layer 3
Mode                                     : Joint stereo
Mode extension                           : MS Stereo
Codec ID                                 : 55
Codec ID/Hint                            : MP3
Duration                                 : 1h 20mn
Bit rate mode                            : Constant
Bit rate                                 : 128 Kbps
Channel(s)                               : 2 channels
Sampling rate                            : 48.0 KHz
Compression mode                         : Lossy
Stream size                              : 73.9 MiB (11%)
Alignment                                : Aligned on interleaves
Interleave, duration                     : 160 ms (4.00 video frames)
Interleave, preload duration             : 216 ms
Title                                    : VTS_01_1 T82 3_2ch 384Kbps DELAY 0ms
Writing library                          : LAME3.99r
Encoding settings                        : -m j -V 4 -q 2 -lowpass 17 -b 128

Screenshots:
[img]http://i.imgur.com/9Gt0Z.png[/img]

[img]http://i.imgur.com/0MDcW.png[/img]

[img]http://i.imgur.com/NgiLq.png[/img]

[img]http://i.imgur.com/1LWWD.png[/img]

Note: 

Source : Elevator 2011 R5 DVD9 PAL-ExDT Thanks!!!

Enjoy!

Respects to T00NG0D, ELEKTRI4KA, PA, YeFsTe, MrRep and everyone in the struggle...